<?xml version="1.0" encoding="UTF-8"?>
<svg version="1.1" xmlns="http://www.w3.org/2000/svg" width="837" height="784">
<path d="M0 0 C18.81 0 37.62 0 57 0 C57 37.29 57 74.58 57 113 C89.98290851 98.15769117 116.10879403 80.84457996 137 51 C121.49 50.67 105.98 50.34 90 50 C90 34.49 90 18.98 90 3 C132.9 3 175.8 3 220 3 C212.06489121 36.72421235 199.24953654 68.06078301 177 95 C176.19691406 96.00546875 175.39382813 97.0109375 174.56640625 98.046875 C162.768673 112.61611751 149.28485567 126.11551577 134 137 C133.35724121 137.46535156 132.71448242 137.93070313 132.05224609 138.41015625 C101.6932882 160.20409587 67.07885952 173.72829293 30.125 178.875 C29.28380615 178.99536621 28.4426123 179.11573242 27.57592773 179.23974609 C18.28813131 180.37875716 9.5433364 180 0 180 C0 120.6 0 61.2 0 0 Z " fill="#FFFFFF" transform="translate(426,433)"/>
<path d="M0 0 C27.98494873 1.16603953 27.98494873 1.16603953 36.625 2.6875 C38.16172363 2.94805176 38.16172363 2.94805176 39.72949219 3.21386719 C85.62270612 11.37423219 125.45004622 33.0196347 159 65 C160.19882812 66.13695312 160.19882812 66.13695312 161.421875 67.296875 C167.10464326 72.82287724 172.13716044 78.74549254 177 85 C177.63808594 85.81549316 177.63808594 85.81549316 178.2890625 86.64746094 C186.2209311 96.85800231 192.73526406 107.7029652 199 119 C196.50634885 121.84029984 193.78849524 123.30390586 190.43359375 125.00390625 C189.31605713 125.5755249 188.19852051 126.14714355 187.04711914 126.73608398 C185.84398708 127.34503617 184.64077924 127.95383868 183.4375 128.5625 C180.98490007 129.81106288 178.53468788 131.06421754 176.0859375 132.3203125 C175.47873367 132.63155563 174.87152985 132.94279877 174.2459259 133.26347351 C168.17954459 136.39092301 162.23841671 139.73705484 156.38256836 143.24243164 C151.52384323 146.0551285 151.52384323 146.0551285 148.91210938 145.78027344 C145.66700943 144.45604726 144.53505727 141.26290096 142.9375 138.3125 C123.90058504 105.01881195 93.18690916 82.07476366 58 68 C57.67 94.4 57.34 120.8 57 148 C38.19 148 19.38 148 0 148 C0 99.16 0 50.32 0 0 Z " fill="#FFFFFF" transform="translate(426,165)"/>
<path d="M0 0 C19.14 0 38.28 0 58 0 C61 8 61 8 61.91625977 10.45849609 C70.68029557 33.80533542 82.68416946 53.94470339 100 72 C100.76570313 72.81726563 101.53140625 73.63453125 102.3203125 74.4765625 C129.16106177 102.35296769 165.35276615 116.62182374 203 122 C203 141.14 203 160.28 203 180 C141.32956691 173.50837546 84.9861185 147.15009962 45.25 98.52734375 C42.03344517 94.4447756 38.99252261 90.24839751 36 86 C35.55897949 85.38769531 35.11795898 84.77539062 34.66357422 84.14453125 C18.41514457 61.50599383 0 28.50165351 0 0 Z " fill="#FFFFFF" transform="translate(196,433)"/>
<path d="M0 0 C0.19408447 0.9597876 0.19408447 0.9597876 0.39208984 1.93896484 C3.27096551 15.96761475 6.65846823 29.67892753 10.8125 43.375 C14.60509541 55.89579488 17.9883347 68.47073914 21.0625 81.1875 C21.25631256 81.98476501 21.45012512 82.78203003 21.64981079 83.60345459 C22.19992128 85.87379765 22.7441085 88.14545042 23.28515625 90.41796875 C23.44510071 91.08319046 23.60504517 91.74841217 23.76983643 92.43379211 C26.00040496 101.9418974 28.82254388 114.28270334 23.49609375 123.203125 C15.4657578 132.84791492 0.99830687 138.03462663 -10.79296875 141.48046875 C-11.88294159 141.79924736 -11.88294159 141.79924736 -12.99493408 142.12446594 C-21.63379182 144.56851816 -30.41579095 146.1366643 -39.25 147.6875 C-40.8933764 147.98421171 -42.5366063 148.28173603 -44.1796875 148.58007812 C-80.1519812 155.07249996 -80.1519812 155.07249996 -88 150 C-107.66817474 128.77425242 -116.81665786 90.16468426 -127.40112305 63.76464844 C-131.4590913 53.65593199 -135.55329601 43.56555094 -139.8203125 33.54296875 C-140.16713074 32.72335663 -140.51394897 31.90374451 -140.87127686 31.05929565 C-143.71302394 24.44150633 -146.90960438 18.02548932 -150.34088135 11.69387817 C-153.08456191 6.46693548 -153.08456191 6.46693548 -152.59716797 3.77563477 C-152.40010254 3.18967529 -152.20303711 2.60371582 -152 2 C-136.94258 7.63106255 -136.94258 7.63106255 -132 15 C-130.82019303 16.52680902 -129.63229851 18.0473938 -128.4375 19.5625 C-125.2312094 23.67689034 -125.2312094 23.67689034 -123.76171875 25.73046875 C-119.35507778 31.62113314 -113.13422471 34.79002188 -106 36 C-83.72999581 37.5137181 -60.44133147 35.27697668 -38.5625 31.0625 C-37.79510498 30.9171582 -37.02770996 30.77181641 -36.23706055 30.62207031 C-30.03331231 29.30191604 -24.37048322 27.29229019 -19.75 22.82421875 C-16.91439929 18.24801493 -15.00717677 13.31273765 -13 8.33007812 C-12.67 7.54697266 -12.34 6.76386719 -12 5.95703125 C-11.71125 5.24522705 -11.4225 4.53342285 -11.125 3.80004883 C-8.48575505 -0.42285765 -4.58298074 -0.20831731 0 0 Z M-12.88671875 56.21484375 C-13.64686279 56.48433838 -14.40700684 56.75383301 -15.19018555 57.03149414 C-16.4263562 57.47996704 -16.4263562 57.47996704 -17.6875 57.9375 C-19.00004761 58.40240845 -19.00004761 58.40240845 -20.33911133 58.87670898 C-25.24524116 60.6210056 -30.12848598 62.41917833 -35 64.2578125 C-50.81315305 70.17722164 -66.68720582 74.55667534 -83.24609375 77.85546875 C-89.49701514 79.13971026 -93.75160171 80.06267226 -98 85 C-100.75837604 90.1569639 -100.22730201 95.43623087 -99 101 C-95.935337 107.37449905 -90.39918921 111.37430081 -84.125 114.375 C-75.84656278 116.03068744 -67.83843915 114.69979273 -59.6875 112.9375 C-58.6456958 112.71416992 -57.6038916 112.49083984 -56.53051758 112.26074219 C-35.88557205 107.65592162 -9.21365083 100.95153444 4.0625 83.25 C6.26097261 75.62862829 5.90557908 67.94450027 2.2734375 60.84765625 C0.29161925 57.97219603 -1.88015541 56.49492553 -5 55 C-8.3702459 55 -9.88590773 55.138374 -12.88671875 56.21484375 Z " fill="#D1172B" transform="translate(510,631)"/>
<path d="M0 0 C0 18.81 0 37.62 0 57 C-3.3 57.66 -6.6 58.32 -10 59 C-50.73618538 67.51785649 -88.33183589 86.17067602 -114 120 C-114.44230957 120.5779834 -114.88461914 121.1559668 -115.34033203 121.75146484 C-116.77939514 123.63889925 -118.20466512 125.53593884 -119.625 127.4375 C-120.05627197 128.00952148 -120.48754395 128.58154297 -120.93188477 129.17089844 C-121.57275024 130.04343262 -121.57275024 130.04343262 -122.2265625 130.93359375 C-122.65348389 131.51342514 -123.08040527 132.09325653 -123.52026367 132.69065857 C-125.10958031 135.03748313 -125.10958031 135.03748313 -126.30125427 137.98091125 C-127.90652896 141.44777889 -129.44366319 144.15042592 -132 147 C-136.72460964 148.65233932 -141.3123498 148.40806465 -146.24609375 148.171875 C-147.62606899 148.14946287 -149.00614044 148.13239569 -150.38624573 148.12042236 C-154.00072838 148.07482594 -157.60932445 147.95720678 -161.22149658 147.82397461 C-164.91443208 147.70069706 -168.60832982 147.64630486 -172.30273438 147.5859375 C-179.53782649 147.45764284 -186.76808546 147.25316892 -194 147 C-193.2084862 142.68139767 -191.83595694 138.87710614 -190.0625 134.875 C-189.75820068 134.18631836 -189.45390137 133.49763672 -189.14038086 132.78808594 C-174.98743303 101.34333258 -153.96820676 71.67021391 -126.64013672 50.28955078 C-125.47465239 49.3731935 -124.31544377 48.44882956 -123.16064453 47.51904297 C-89.39106451 20.33088866 -43.97071868 0 0 0 Z " fill="#FFFFFF" transform="translate(399,166)"/>
<path d="M0 0 C0.75361816 0.19867676 1.50723633 0.39735352 2.28369141 0.60205078 C47.5519419 12.77878147 47.5519419 12.77878147 56 27 C58.0778963 35.68869809 56.29812516 44.60797571 55.0859375 53.30078125 C54.87129034 54.90165644 54.65765978 56.50266822 54.44497681 58.10380554 C53.88160017 62.32417976 53.30454625 66.54257188 52.7244873 70.76068115 C52.15581194 74.91292498 51.59989028 79.06686953 51.04296875 83.22070312 C49.36178502 95.7321812 47.65853753 108.24062211 45.93107605 120.74579525 C45.46720507 124.10829728 45.00631385 127.4712043 44.54584122 130.8341732 C44.32891956 132.41228333 44.11054519 133.99019461 43.89056015 135.56788063 C42.33925283 146.69394582 41.16918717 157.75674375 41 169 C34.22629841 165.19370557 27.50357267 161.31095301 20.83203125 157.328125 C19.13613231 156.31588147 17.44023319 155.30363826 15.74432373 154.29141235 C14.57893748 153.59564263 13.41377719 152.8994943 12.24884033 152.20297241 C3.24420641 146.8256695 -5.86730485 141.69059397 -15.19726562 136.89355469 C-23.87831162 132.3202067 -23.87831162 132.3202067 -26 128 C-27.1237894 120.08825958 -25.25341965 112.84927519 -23 105.3125 C-22.71382813 104.31283203 -22.42765625 103.31316406 -22.1328125 102.28320312 C-21.43469345 99.85142175 -20.72371741 97.42426084 -20 95 C-20.37286133 95.73114014 -20.74572266 96.46228027 -21.12988281 97.21557617 C-22.83073356 100.54258171 -24.5402661 103.86505136 -26.25 107.1875 C-26.83652344 108.33798828 -27.42304688 109.48847656 -28.02734375 110.67382812 C-28.60097656 111.78564453 -29.17460937 112.89746094 -29.765625 114.04296875 C-30.28930664 115.06414795 -30.81298828 116.08532715 -31.35253906 117.13745117 C-35.42414082 124.21207041 -35.42414082 124.21207041 -39 126 C-47.99934286 126.56930149 -56.6269004 126.04640858 -65.5 124.5 C-85.17912931 121.23359502 -103.57499685 122.67943665 -122.85302734 127.54101562 C-125 128 -125 128 -128 128 C-126.71722207 125.29512452 -125.31055207 122.9148746 -123.5234375 120.515625 C-122.77731201 119.50314697 -122.77731201 119.50314697 -122.01611328 118.47021484 C-121.4745459 117.73754395 -120.93297852 117.00487305 -120.375 116.25 C-108.7979134 100.38171685 -98.12264479 83.93305602 -87.79663086 67.22998047 C-82.18388915 58.19340012 -76.29197814 49.35860187 -70.35571289 40.53320312 C-66.29626587 34.49096466 -62.34138937 28.40912696 -58.5625 22.1875 C-55.3695696 16.97160447 -51.92979031 12.0258586 -48.1875 7.1875 C-47.742854 6.60572998 -47.29820801 6.02395996 -46.84008789 5.42456055 C-36.11713787 -8.06338883 -14.70423998 -3.93693026 0 0 Z M-62.03295898 52.29223633 C-62.59958252 53.10329834 -63.16620605 53.91436035 -63.75 54.75 C-64.35851807 55.59908936 -64.96703613 56.44817871 -65.59399414 57.32299805 C-67.41231839 59.8709395 -69.20963024 62.43236018 -71 65 C-71.4851709 65.6923877 -71.9703418 66.38477539 -72.47021484 67.09814453 C-75.16507365 70.95335726 -77.81918963 74.8349438 -80.45751953 78.72900391 C-82.24423736 81.359591 -84.04171718 83.98266739 -85.83984375 86.60546875 C-87.1850108 88.57023379 -88.53006356 90.53507709 -89.875 92.5 C-90.50591553 93.42014893 -91.13683105 94.34029785 -91.78686523 95.28833008 C-95.31537661 100.4556672 -98.72404022 105.66878028 -102 111 C-101.13725464 110.9685791 -101.13725464 110.9685791 -100.25708008 110.93652344 C-83.75872896 110.42484624 -68.11999589 112.0008872 -51.84887695 114.6328125 C-49.09939622 114.98718897 -46.75885123 115.28605805 -44 115 C-42.28699633 113.44502314 -42.28699633 113.44502314 -41.04785156 111.20898438 C-40.54290161 110.38293701 -40.03795166 109.55688965 -39.5177002 108.70581055 C-36.93198646 104.09590701 -34.55044324 99.40660496 -32.234375 94.65625 C-31.71490295 93.60594604 -31.19543091 92.55564209 -30.66021729 91.47351074 C-29.01758216 88.1518763 -27.38284711 84.8264558 -25.75 81.5 C-23.58494004 77.09034727 -21.41209324 72.68466247 -19.234375 68.28125 C-18.73854919 67.26470337 -18.24272339 66.24815674 -17.73187256 65.20080566 C-17.27089172 64.26893433 -16.80991089 63.33706299 -16.33496094 62.37695312 C-15.93114197 61.55360474 -15.527323 60.73025635 -15.11126709 59.88195801 C-14 58 -14 58 -12 57 C-9.90625 56.796875 -9.90625 56.796875 -7.5 56.75 C-6.30890625 56.71132812 -6.30890625 56.71132812 -5.09375 56.671875 C-4.4028125 56.78015625 -3.711875 56.8884375 -3 57 C0.11723736 61.67585604 -0.45852891 66.19956135 -1.50558472 71.61483765 C-2.21511842 74.48497351 -2.99667262 77.32511812 -3.80859375 80.16796875 C-4.09477066 81.20641434 -4.38094757 82.24485992 -4.67579651 83.31477356 C-5.58558923 86.60878657 -6.51082475 89.89820075 -7.4375 93.1875 C-8.35762925 96.48826199 -9.27448961 99.78989774 -10.18849182 103.09236145 C-10.75632815 105.14031845 -11.32819715 107.18716282 -11.90464783 109.23271179 C-13.18205264 113.80581262 -14.35922119 118.28396693 -15 123 C-14.37246826 123.33620361 -13.74493652 123.67240723 -13.09838867 124.01879883 C-1.19163873 130.40760144 10.67275708 136.83255455 22.28442383 143.74731445 C23.01298584 144.1774585 23.74154785 144.60760254 24.4921875 145.05078125 C25.12495605 145.42887939 25.75772461 145.80697754 26.40966797 146.1965332 C28.00055649 147.15031223 28.00055649 147.15031223 30 147 C31.8530835 136.0754568 33.08545572 125.09172306 34.28710938 114.08007812 C34.62437787 111.00567113 34.97220005 107.93257056 35.3203125 104.859375 C38.64812499 86.149226 38.64812499 86.149226 34 69 C17.51146916 51.92409148 -11.65983902 46.75694224 -34 43 C-35.08796875 42.80664062 -36.1759375 42.61328125 -37.296875 42.4140625 C-39.86527 42.02063783 -42.34112434 41.76745322 -44.9375 41.6875 C-45.73027344 41.65011719 -46.52304687 41.61273438 -47.33984375 41.57421875 C-54.36824933 42.69917647 -58.04699175 46.79561367 -62.03295898 52.29223633 Z M-19 91 C-18 93 -18 93 -18 93 Z " fill="#D1172B" transform="translate(524,15)"/>
<path d="M0 0 C0.29390625 1.67449219 0.29390625 1.67449219 0.59375 3.3828125 C4.86404233 26.25849342 14.31982839 47.41553662 23.95703125 68.4765625 C45.51603538 115.80427686 45.51603538 115.80427686 41.3515625 131.43359375 C37.43325622 141.09540026 29.94377274 147.20952184 21.5 152.875 C20.17560913 153.77943848 20.17560913 153.77943848 18.82446289 154.70214844 C17.04524335 155.91461541 15.26282514 157.12240345 13.47705078 158.32519531 C11.31265834 159.78860278 9.16655496 161.27361337 7.02734375 162.7734375 C-1.06983179 168.39590221 -9.50257746 173.04796092 -18.26953125 177.54296875 C-22.79235367 179.86769762 -27.21279076 182.34811712 -31.625 184.875 C-41.25056214 190.35695986 -49.68226021 195.02708982 -61 194 C-66.94944541 192.13350732 -69.94783356 188.22539967 -73 183 C-74.83828105 178.48393352 -76.32985553 173.89090851 -77.78115845 169.23815918 C-79.03196966 165.23492609 -80.33794598 161.24959507 -81.63671875 157.26171875 C-82.04170845 156.01202805 -82.04170845 156.01202805 -82.45487976 154.73709106 C-85.29020647 146.02414026 -88.32166757 137.38412715 -91.41357422 128.75930786 C-92.00288114 127.11428608 -92.58972195 125.4683783 -93.17382812 123.82150269 C-97.9286417 110.42049226 -102.80680294 96.83625748 -110.15234375 84.6015625 C-111 83 -111 83 -111 81 C-107.67007141 79.0490536 -104.87762092 78.08543106 -101 78 C-97.55510558 79.40536139 -94.53565323 81.47301257 -91.53100586 83.64624023 C-87.85006515 86.23400821 -84.96079772 87.77681645 -80.26806641 87.46899414 C-75.23327092 86.42789165 -70.64672377 84.20426943 -66 82.0625 C-64.89148682 81.56105469 -63.78297363 81.05960938 -62.64086914 80.54296875 C-34.47677259 68.04875364 -34.47677259 68.04875364 -12.8125 47.375 C-12.32394531 46.59898437 -11.83539062 45.82296875 -11.33203125 45.0234375 C-7.47277268 36.26371276 -7.83222559 27.32007656 -8.25390625 17.94726562 C-8.42610014 10.67967035 -7.16434111 6.63313238 -2.3125 1.0625 C-1 0 -1 0 0 0 Z M-3 89 C-15.51930216 96.43078875 -28.48374235 102.56368024 -41.77197266 108.47045898 C-48.81549301 111.60443113 -55.83125675 114.79519233 -62.7734375 118.1484375 C-63.7729393 118.61511337 -63.7729393 118.61511337 -64.79263306 119.09121704 C-68.91020287 121.1142452 -71.47545748 123.16535842 -74 127 C-75.80257249 132.40771748 -75.71837012 137.06532491 -73.3125 142.1875 C-70.79566168 146.68248493 -67.99582243 149.9545692 -63.375 152.375 C-43.27318577 156.09755819 -17.60442985 141.43320491 -1.375 131 C0.44181217 129.70113867 2.2331215 128.36601156 4 127 C4.54333984 126.58250488 5.08667969 126.16500977 5.64648438 125.73486328 C13.37525442 119.72624222 20.80633301 113.58100097 24 104 C24.78727629 97.4565725 23.75821255 92.44081098 20 87 C17.29867488 84.07964852 15.76875187 83.15375037 11.875 82.375 C6.15621746 83.29738428 1.94333073 86.06471282 -3 89 Z " fill="#D1172B" transform="translate(623,548)"/>
<path d="M0 0 C13.53 0 27.06 0 41 0 C41.495 4.455 41.495 4.455 42 9 C43.54242927 11.55528152 44.88908991 13.48394964 46.8125 15.6875 C47.30459961 16.28288574 47.79669922 16.87827148 48.30371094 17.49169922 C49.84753368 19.34750891 51.41770332 21.17692976 53 23 C53.47937012 23.55284668 53.95874023 24.10569336 54.45263672 24.67529297 C55.40235565 25.76885917 56.35214466 26.86236452 57.30200195 27.95581055 C57.77984131 28.50664307 58.25768066 29.05747559 58.75 29.625 C59.23879639 30.18807861 59.72759277 30.75115723 60.23120117 31.33129883 C80.51841134 54.9602372 102.88305317 84.19523167 101 117 C96.99994825 162.14344118 65.07288327 208.38497506 33 239 C32.34 238.67 31.68 238.34 31 238 C31.27674561 237.22213135 31.55349121 236.4442627 31.83862305 235.64282227 C57.19477271 163.74323034 40.80647993 105.05983056 12.57969666 36.68836975 C9.25078416 28.61551099 5.98640197 20.52660426 2.92578125 12.34765625 C2.62721725 11.56128281 2.32865326 10.77490936 2.02104187 9.96470642 C0.71179324 6.41021695 0 3.83221996 0 0 Z " fill="#D1172B" transform="translate(674,426)"/>
<path d="M0 0 C7.44000707 3.45737954 14.14524554 7.57217997 20.875 12.25 C21.84026611 12.91531738 22.80553223 13.58063477 23.80004883 14.26611328 C30.66106616 19.01653724 37.43865052 23.84039336 44 29 C44.89203125 29.69996094 45.7840625 30.39992188 46.703125 31.12109375 C60.10709101 41.86341508 73.04164993 53.84310887 84.19921875 66.91796875 C86.37324202 69.43153578 88.62390488 71.86776229 90.875 74.3125 C95.79618347 79.71470141 100.41501653 85.31229898 105 91 C106.00934094 92.23005016 107.01982598 93.4591621 108.03125 94.6875 C115.62695033 103.93015706 122.97190191 113.31816427 130 123 C130.93465088 124.28221436 130.93465088 124.28221436 131.88818359 125.59033203 C154.61200892 156.94177147 180.96031153 199.21409743 175.65136719 239.65576172 C174.19634724 248.52299524 172.16556801 256.55848531 169 265 C160.42 264.67 151.84 264.34 143 264 C140.56580516 257.91451291 138.15633435 251.83988309 135.86328125 245.703125 C135.28425184 244.16188892 134.70506306 242.62071272 134.12573242 241.07958984 C133.2105394 238.6423292 132.29560924 236.20497088 131.3812561 233.76739502 C127.35462699 223.04551475 123.28446092 212.35840215 118.57739258 201.91113281 C114.26216509 191.90913071 114.03986108 182.14209997 118 172 C122.38924452 162.95341789 127.63509866 154.25579261 133.13671875 145.84765625 C134.33058623 143.84495773 134.33058623 143.84495773 133 141 C132.34 141 131.68 141 131 141 C129.7278172 142.74687225 128.54794959 144.56120098 127.41015625 146.3984375 C127.06496445 146.94859528 126.71977264 147.49875305 126.36412048 148.06558228 C125.25675521 149.83123266 124.1587282 151.60241651 123.0625 153.375 C121.96955595 155.14024766 120.87453603 156.90397585 119.77159119 158.66299438 C118.76759625 160.26426283 117.77238055 161.87102578 116.77758789 163.47802734 C115 166 115 166 112 168 C109.20310743 168.07769146 107.57516749 167.45889445 105.39135742 165.71655273 C100.49409709 161.0052204 97.54622124 156.06537411 94.5625 150 C93.52491863 147.95303423 92.48714769 145.90616455 91.44921875 143.859375 C90.8979834 142.76044922 90.34674805 141.66152344 89.77880859 140.52929688 C86.86648716 134.75102092 83.88680969 129.00775641 80.91329956 123.26080322 C79.87821378 121.25622391 78.84774988 119.24933345 77.81860352 117.24169922 C74.86849807 111.49358905 71.89969585 105.76389938 68.7578125 100.1171875 C68.2848877 99.25834961 67.81196289 98.39951172 67.32470703 97.51464844 C66.47985289 95.99061003 65.62026946 94.47458068 64.74169922 92.96972656 C61.61509404 87.30164388 60.8549791 82.19325221 62.578125 75.8828125 C63.30657009 73.85634025 64.12113935 71.90305998 65 69.9375 C65.28617188 69.26267578 65.57234375 68.58785156 65.8671875 67.89257812 C66.56379643 66.25554714 67.27983337 64.62680498 68 63 C66.68 62.01 65.36 61.02 64 60 C63.773125 60.86625 63.54625 61.7325 63.3125 62.625 C61.75974905 66.61778814 59.85680105 68.84248305 57 72 C52.79270963 70.63925049 50.62634571 68.89160383 47.75 65.5625 C46.96625 64.66015625 46.1825 63.7578125 45.375 62.828125 C42.38361274 59.26601254 39.44131073 55.66696973 36.515625 52.05078125 C33.57075243 48.47943734 30.54288762 44.98780298 27.5 41.5 C22.91084253 36.23906461 18.42802855 30.92154207 14.0625 25.47265625 C12.03978701 23.04769919 9.88880421 20.82450194 7.6875 18.5625 C3.22547996 13.64626235 0 6.76379606 0 0 Z " fill="#D1172B" transform="translate(620,59)"/>
<path d="M0 0 C15.11933666 11.89928047 26.4284918 27.27000999 30.64453125 46.2421875 C32.29854257 70.22535157 25.14666684 93.43985034 9.39453125 111.8671875 C7.59232651 113.89974458 5.75127313 115.88304873 3.89453125 117.8671875 C3.16621094 118.68703125 2.43789063 119.506875 1.6875 120.3515625 C-8.92970479 131.77638398 -23.38646405 140.0353388 -39.16699219 140.9921875 C-61.66486145 141.77032392 -78.55824407 134.95076751 -96.10546875 120.8671875 C-97.09933594 120.09375 -98.09320313 119.3203125 -99.1171875 118.5234375 C-107.78139601 110.82191883 -115.30440814 98.68017994 -116.26171875 86.953125 C-117.47722663 58.28739744 -92.81603942 25.15030636 -74.75 4.73828125 C-52.50621537 -19.41117474 -26.08468322 -17.91476357 0 0 Z M-44.43041992 34.59765625 C-67.76424556 65.41873194 -67.76424556 65.41873194 -76.10546875 100.8671875 C-72.52410746 110.8753752 -61.87300561 115.96577055 -52.9140625 120.47265625 C-42.56051383 125.0757333 -31.71996404 127.71094198 -20.6796875 124.06640625 C-2.20056935 115.96152987 11.38700656 96.10846632 18.5 77.8828125 C22.26818153 67.46325805 24.17717152 56.37142038 20.39453125 45.6171875 C13.28053176 30.64296479 2.10990188 21.82551014 -13.10546875 15.8671875 C-28.39827641 11.25418336 -36.30017171 23.50270483 -44.43041992 34.59765625 Z " fill="#D1172B" transform="translate(265.10546875,68.1328125)"/>
<path d="M0 0 C1.42247003 0.03011718 2.84500098 0.05748995 4.26757812 0.08203125 C7.74215683 0.14793801 11.21444165 0.25135849 14.6875 0.375 C14.07351194 3.60912027 12.9794113 5.65899267 11.01953125 8.2890625 C10.46313965 9.04082764 9.90674805 9.79259277 9.33349609 10.56713867 C8.42591553 11.77140503 8.42591553 11.77140503 7.5 13 C6.87432129 13.83958252 6.24864258 14.67916504 5.60400391 15.54418945 C0.75352421 22.02626033 -4.2016263 28.42496592 -9.18896484 34.80200195 C-29.75066016 57.68020873 -29.75066016 57.68020873 -37.3125 85.375 C-33.4077276 103.63555327 -22.24990103 120.63744264 -12.9375 136.5625 C-12.474646 137.36905029 -12.01179199 138.17560059 -11.53491211 139.0065918 C-8.18235774 144.59816288 -4.24632227 149.40808887 1.6875 152.375 C8.37640146 152.80727594 14.11861433 151.52090867 20.5625 149.8125 C21.59753662 149.54655029 22.63257324 149.28060059 23.69897461 149.0065918 C30.44779452 147.26135557 37.17369019 145.43306532 43.89916992 143.6003418 C95.9225671 129.42799338 95.9225671 129.42799338 116.80078125 141.203125 C117.73470703 141.78320312 117.73470703 141.78320312 118.6875 142.375 C119.50605469 142.86484375 120.32460937 143.3546875 121.16796875 143.859375 C125.89984799 146.82321874 125.89984799 146.82321874 127.6875 148.375 C127.6875 149.365 127.6875 150.355 127.6875 151.375 C126.79611328 151.10236328 126.79611328 151.10236328 125.88671875 150.82421875 C108.63214145 145.59149313 92.88110682 142.20466807 74.9375 145.8515625 C73.67212906 146.10780144 73.67212906 146.10780144 72.38119507 146.36921692 C60.13998032 148.9863724 48.20612019 152.7986903 36.24914551 156.46917725 C33.05999318 157.44622577 29.86774605 158.41304583 26.67578125 159.38085938 C25.41529968 159.76355988 24.15481812 160.14626038 22.85614014 160.54055786 C20.31665223 161.31141075 17.77698 162.08165663 15.23712158 162.85128784 C9.32798237 164.64526707 3.42422769 166.45155892 -2.46388054 168.31352901 C-5.16989141 169.16694918 -7.87957941 170.00829303 -10.58986282 170.848032 C-12.47560746 171.43720564 -14.3562507 172.04263099 -16.23666382 172.64860535 C-24.14662208 175.08977206 -32.52900558 177.47973755 -40.4375 174 C-48.19091949 166.9207909 -54.27548218 158.98622107 -59.75 150.0625 C-60.39251709 149.02287109 -61.03503418 147.98324219 -61.69702148 146.91210938 C-67.67722119 137.06606556 -72.7549552 126.94624365 -77.3125 116.375 C-77.64137207 115.6325 -77.97024414 114.89 -78.30908203 114.125 C-82.59267548 104.34910922 -85.76068671 94.965362 -82.33984375 84.359375 C-78.84234577 76.56902964 -73.44946968 70.35542632 -67.81103516 64.05908203 C-65.28782502 61.22345096 -62.83698472 58.32623947 -60.375 55.4375 C-57.35145903 51.90636441 -54.320685 48.38179722 -51.2734375 44.87109375 C-44.85870047 37.46446172 -38.69909692 29.90494247 -32.69775391 22.16015625 C-30.28909185 19.05614903 -27.86308986 15.96578388 -25.4375 12.875 C-24.99720459 12.31167969 -24.55690918 11.74835938 -24.10327148 11.16796875 C-23.25548459 10.08641531 -22.39425656 9.01524981 -21.51928711 7.95556641 C-20.08179041 6.15370918 -20.08179041 6.15370918 -18.44921875 2.9921875 C-14.28397906 -1.97405982 -5.90950599 -0.21662512 0 0 Z " fill="#D1172B" transform="translate(127.3125,425.625)"/>
<path d="M0 0 C15.16992715 11.67970331 24.34211782 25.31916805 29.8125 43.5625 C37.55070866 67.2087392 52.71379071 88.69779265 67.07104492 108.72631836 C67.72306885 109.64292236 68.37509277 110.55952637 69.046875 111.50390625 C69.92037598 112.71735718 69.92037598 112.71735718 70.81152344 113.95532227 C72.12463083 116.0855105 72.75238086 117.74152881 73.1875 120.1875 C66.35999013 118.08769494 59.94203751 115.37267812 53.4375 112.4375 C30.77732647 102.44990101 7.99961068 96.07050371 -16.6875 93.75 C-51.50690327 90.41711249 -83.25929741 78.86744402 -112.09594727 59.34545898 C-119.78340223 54.15146033 -127.56366146 49.43247516 -135.8125 45.1875 C-136.6876123 44.73697266 -137.56272461 44.28644531 -138.46435547 43.82226562 C-159.19260655 33.27686908 -180.82866559 24.40634693 -203.234375 18.08984375 C-205.8125 17.1875 -205.8125 17.1875 -206.8125 15.1875 C-204.0322343 13.79736715 -201.48138744 13.88468742 -198.375 13.625 C-178.89017398 11.5102615 -159.67184199 3.98995755 -141.8125 -3.8125 C-140.87970215 -4.21791016 -139.9469043 -4.62332031 -138.98583984 -5.04101562 C-136.04688581 -6.32641182 -133.11557608 -7.62752578 -130.1875 -8.9375 C-129.29893311 -9.33308105 -128.41036621 -9.72866211 -127.49487305 -10.13623047 C-123.00824565 -12.18231819 -118.76142459 -14.38905528 -114.55859375 -16.97265625 C-110.95673562 -19.18581211 -107.56322369 -20.87689205 -103.5 -22.125 C-102.53449219 -22.43050781 -101.56898438 -22.73601563 -100.57421875 -23.05078125 C-68.31007321 -31.94966156 -26.82779093 -18.55273993 0 0 Z M-113.55078125 -7.30078125 C-120.26936028 0.09081605 -124.1058935 8.71027372 -125.1875 18.625 C-123.72787073 32.4914781 -117.48576828 41.62876638 -106.8125 50.3125 C-87.94493798 65.04041336 -66.12727503 73.54242976 -42.8125 78.1875 C-41.63042969 78.43371094 -40.44835937 78.67992187 -39.23046875 78.93359375 C-24.49676256 81.6208735 -10.25786082 82.13881472 2.4375 73.4375 C10.71851937 66.75925857 15.46757702 57.63807966 17.1875 47.1875 C18.16638259 35.98682426 15.15934622 26.94210142 8.1875 18.1875 C-1.62623596 6.58130086 -15.15661824 -0.6727196 -28.8125 -6.8125 C-29.5044043 -7.12461426 -30.19630859 -7.43672852 -30.90917969 -7.75830078 C-55.84566204 -18.76375523 -91.51174654 -28.44026352 -113.55078125 -7.30078125 Z " fill="#D1172B" transform="translate(301.8125,606.8125)"/>
<path d="M0 0 C5.6832707 2.50214794 10.66011939 5.36323628 15.5625 9.1875 C27.03056411 18.02716017 39.90035136 24.73685775 52.91796875 30.99365234 C55.05773045 32.02790396 57.18510037 33.08511288 59.3125 34.14453125 C116.32450971 62.22609065 179.71847748 75.71477928 242 86 C241.67 86.66 241.34 87.32 241 88 C239.9577124 87.98428955 238.9154248 87.9685791 237.84155273 87.95239258 C233.89973977 87.89726333 229.95795927 87.86335482 226.01586914 87.83520508 C224.32375318 87.82030433 222.63167452 87.79997666 220.93969727 87.77368164 C200.45292471 87.4637364 183.6903035 91.72029405 165.46704102 101.32104492 C146.63444682 111.1185542 119.843042 102.38287769 100.85546875 96.5546875 C99.23557365 96.04086859 97.61699889 95.52286192 96 95 C95.2879541 94.77086914 94.5759082 94.54173828 93.84228516 94.30566406 C76.52357259 88.59765499 56.53479709 80.41996497 47 64 C45.87192725 60.94166944 45.00472879 57.8247681 44.125 54.6875 C39.98134008 41.04623053 33.54011122 34.31748761 22.71582031 25.42382812 C3.53133754 9.50409228 3.53133754 9.50409228 0 2 C0 1.34 0 0.68 0 0 Z " fill="#D1172B" transform="translate(125,643)"/>
<path d="M0 0 C41.22689282 4.22374737 41.22689282 4.22374737 82.3125 0.5625 C80.23607704 6.79176887 70.94018319 10.53883554 65.3125 13.5625 C46.45538313 22.69450594 27.20295543 24.11549189 6.5625 23.6875 C-23.52944108 22.3145954 -23.52944108 22.3145954 -49.08251953 36.00341797 C-52.75620212 39.58586847 -56.35889806 43.24006711 -59.9765625 46.87890625 C-60.90750732 47.81420166 -61.83845215 48.74949707 -62.79760742 49.71313477 C-64.65825079 51.58425837 -66.50755311 53.46480056 -68.3527832 55.35131836 C-80.29032701 67.45622655 -80.29032701 67.45622655 -88.46484375 67.6171875 C-108.55413118 66.47490416 -128.52236276 54.41474385 -145.6875 44.5625 C-145.6875 43.9025 -145.6875 43.2425 -145.6875 42.5625 C-144.470625 42.871875 -143.25375 43.18125 -142 43.5 C-131.69997848 45.72790434 -121.61083534 46.77856187 -111.6875 42.5625 C-104.58436766 37.96927336 -98.79296188 31.89244199 -93.12109375 25.671875 C-64.8991156 -5.22446987 -39.71158445 -3.75035288 0 0 Z " fill="#D1172B" transform="translate(396.6875,2.4375)"/>
<path d="M0 0 C5.754375 -0.04125 11.50875 -0.0825 17.4375 -0.125 C19.23501709 -0.14320801 21.03253418 -0.16141602 22.88452148 -0.18017578 C24.33837589 -0.18602694 25.79223361 -0.19112101 27.24609375 -0.1953125 C27.97735474 -0.20554443 28.70861572 -0.21577637 29.46203613 -0.22631836 C37.44909623 -0.22896352 44.6707743 0.82154261 51 6 C56.57310383 11.75434298 57.34002776 16.34224058 57.38720703 24.2277832 C57.26279408 30.01717902 56.08971804 33.88914647 52 38 C50.05049606 39.59338847 48.2122436 40.76525939 46 42 C50.78140581 49.6570762 50.78140581 49.6570762 55.9375 57.0625 C58 60 58 60 58 62 C58.66 62 59.32 62 60 62 C60.24986412 61.20717369 60.24986412 61.20717369 60.504776 60.39833069 C62.47200426 54.31255553 64.80982456 48.44348754 67.30859375 42.55859375 C67.71658707 41.59147964 68.12458038 40.62436554 68.54493713 39.62794495 C69.40307048 37.59607636 70.26287286 35.56491193 71.12426758 33.53442383 C72.43441362 30.44477844 73.73809105 27.35246222 75.04101562 24.25976562 C75.87982422 22.27587922 76.71900448 20.2921499 77.55859375 18.30859375 C77.94413925 17.39379745 78.32968475 16.47900116 78.72691345 15.53648376 C79.09732254 14.6652034 79.46773163 13.79392303 79.84936523 12.89624023 C80.16896713 12.1417308 80.48856903 11.38722137 80.81785583 10.60984802 C82.44182614 7.02456983 84.23980119 3.52039762 86 0 C91.94 0 97.88 0 104 0 C110.73449283 15.09553689 117.26885939 30.26790135 123.6875 45.5 C124.23229004 46.79046234 124.23229004 46.79046234 124.78808594 48.10699463 C125.82308589 50.56002646 126.85542103 53.01415974 127.88671875 55.46875 C128.20182907 56.21555023 128.51693939 56.96235046 128.84159851 57.73178101 C131 62.88455155 131 62.88455155 131 64 C124.4 64 117.8 64 111 64 C109.35 60.7 107.7 57.4 106 54 C98.41 54 90.82 54 83 54 C81.68 57.3 80.36 60.6 79 64 C73.30784332 64.27322046 67.61954402 64.47207961 61.92236328 64.60424805 C59.98776754 64.65936059 58.05362583 64.73428109 56.12060547 64.82983398 C40.03583192 65.60465435 40.03583192 65.60465435 34.99023438 61.62768555 C32.95048078 58.82627236 31.44499996 56.14113328 30 53 C29.19050291 51.79612494 28.36192195 50.60441527 27.5 49.4375 C26 47 26 47 26 45 C23.69 45 21.38 45 19 45 C19 51.27 19 57.54 19 64 C12.73 64 6.46 64 0 64 C0 42.88 0 21.76 0 0 Z M19 16 C19 20.95 19 25.9 19 31 C21.8153125 31.061875 21.8153125 31.061875 24.6875 31.125 C25.74324219 31.14820313 26.79898437 31.17140625 27.88671875 31.1953125 C32.02789902 30.93551449 34.87500277 30.08749732 37.875 27.1875 C39.21553286 25.02923376 39.21553286 25.02923376 38.875 22.4375 C37.92998805 19.80496672 37.23463642 18.65528624 35 17 C31.57600659 15.85346918 28.33871386 15.89849224 24.75 15.9375 C21.90375 15.9684375 21.90375 15.9684375 19 16 Z M94 23 C93.16260219 25.1234016 92.33019717 27.2487728 91.5 29.375 C91.0359375 30.55835938 90.571875 31.74171875 90.09375 32.9609375 C88.88712206 35.7753244 88.88712206 35.7753244 89 38 C92.63 38 96.26 38 100 38 C99.23239022 34.16195111 98.40495674 31.23779856 96.9375 27.6875 C96.57527344 26.80449219 96.21304688 25.92148437 95.83984375 25.01171875 C95.56269531 24.34785156 95.28554688 23.68398438 95 23 C94.67 23 94.34 23 94 23 Z " fill="#FFFFFF" transform="translate(426,342)"/>
<path d="M0 0 C11.03482848 4.6282945 17.64693898 20.79046933 22.45703125 31.1328125 C28.42401499 46.60901767 24.65832999 61.38596433 18.30859375 75.96484375 C11.51095522 90.77385465 1.32013807 103.43883071 -8.6953125 116.17236328 C-12.96247575 121.6115772 -17.08339435 127.14129993 -21.125 132.75 C-21.92345337 133.85782837 -21.92345337 133.85782837 -22.73803711 134.98803711 C-23.49032593 136.03809937 -23.49032593 136.03809937 -24.2578125 137.109375 C-24.74121094 137.76921387 -25.22460938 138.42905273 -25.72265625 139.10888672 C-27.19853271 141.1878865 -27.19853271 141.1878865 -28.6328125 144.4921875 C-31.49832932 147.52793304 -32.3694665 147.41739369 -36.421875 147.5859375 C-38.53204597 147.54612295 -40.64180774 147.47466 -42.75 147.375 C-44.36841797 147.33439453 -44.36841797 147.33439453 -46.01953125 147.29296875 C-48.68171065 147.22229142 -51.33984236 147.12368401 -54 147 C-43.36794783 113.01627159 -26.82303601 80.70389962 -1 56 C-0.34 55.34 0.32 54.68 1 54 C-2.06651043 55.74304069 -5.12744372 57.49565701 -8.1875 59.25 C-9.48397461 59.98669922 -9.48397461 59.98669922 -10.80664062 60.73828125 C-14.37261582 62.78769228 -17.68195945 64.73793111 -20.86328125 67.359375 C-23 69 -23 69 -27 69 C-30.99182285 61.01635431 -27.48514419 49.76758629 -24.8125 41.74609375 C-19.30978238 26.64897655 -11.61692291 11.28501083 0 0 Z " fill="#D1172B" transform="translate(84,179)"/>
<path d="M0 0 C0.66 0.33 1.32 0.66 2 1 C2.77441406 3.52172852 2.77441406 3.52172852 3.515625 6.87890625 C3.79398193 8.10270996 4.07233887 9.32651367 4.35913086 10.58740234 C4.50414032 11.236828 4.64914978 11.88625366 4.79855347 12.55535889 C9.66180105 34.17746349 15.9401854 54.99398713 32 71 C32.75925781 71.81855469 33.51851562 72.63710937 34.30078125 73.48046875 C47.24422319 87.14416769 63.66037799 97.60987874 82.80078125 99.23828125 C89.83753566 98.91281733 95.10121782 95.5750195 101 92 C103.47877354 90.54103477 105.96284797 89.09155571 108.44946289 87.64599609 C110.17877526 86.63939831 111.90459867 85.62678033 113.62670898 84.60791016 C114.81889038 83.90867432 114.81889038 83.90867432 116.03515625 83.1953125 C116.7506665 82.77266113 117.46617676 82.35000977 118.20336914 81.91455078 C120 81 120 81 122 81 C122 81.66 122 82.32 122 83 C120.44053802 84.34529989 118.82436545 85.62503002 117.1875 86.875 C98.0868809 102.29680088 85.59563175 123.70377495 74 145 C73.3517627 146.17900879 73.3517627 146.17900879 72.69042969 147.38183594 C67.92453548 156.0682411 63.55192127 164.73644654 60 174 C56.64333421 170.9768651 54.80300743 168.04976514 52.85546875 163.98828125 C52.56911057 163.39604767 52.28275238 162.80381409 51.98771667 162.19363403 C51.04534651 160.23741369 50.11601022 158.27533264 49.1875 156.3125 C48.52389781 154.92376728 47.85999234 153.53517945 47.19580078 152.14672852 C39.90999309 136.86582602 32.88514836 121.46506588 26 106 C25.57621063 105.04864166 25.57621063 105.04864166 25.14385986 104.07806396 C12.45801175 75.56283285 0.08780703 46.54948307 -10 17 C-10.24508301 16.31574951 -10.49016602 15.63149902 -10.74267578 14.92651367 C-11 13 -11 13 -8.69140625 9.765625 C-7.66118281 8.5825297 -6.617586 7.41097733 -5.5625 6.25 C-5.03333984 5.64800781 -4.50417969 5.04601562 -3.95898438 4.42578125 C-2.65056134 2.94054429 -1.32670579 1.46892866 0 0 Z " fill="#D1172B" transform="translate(125,131)"/>
<path d="M0 0 C1.7421875 0.12890625 1.7421875 0.12890625 4 1 C5.55900924 2.96241046 6.83664276 4.8074819 8.125 6.9375 C8.51115479 7.56084229 8.89730957 8.18418457 9.29516602 8.82641602 C10.54906769 10.87347403 11.77725492 12.93419681 13 15 C13.40557129 15.67804688 13.81114258 16.35609375 14.22900391 17.0546875 C30.01558087 43.66903593 45.15251554 76.13017303 37.8125 107.8125 C36 113 36 113 31 123 C6.58 123 -17.84 123 -43 123 C-41.55612898 119.39032244 -40.61888339 117.19181015 -38.453125 114.20703125 C-37.69140991 113.15261841 -37.69140991 113.15261841 -36.91430664 112.0769043 C-36.36508545 111.32965088 -35.81586426 110.58239746 -35.25 109.8125 C-34.67435303 109.02077393 -34.09870605 108.22904785 -33.50561523 107.41333008 C-29.4760346 101.90785223 -25.2971236 96.53577462 -21.0625 91.1875 C2.4849245 62.26890083 2.4849245 62.26890083 9 27 C7.05317588 17.67408446 3.56966301 8.80711938 0 0 Z " fill="#D1172B" transform="translate(109,203)"/>
<path d="M0 0 C-3.2920304 3.72761712 -7.10517353 5.88357413 -11.4375 8.1875 C-23.946638 15.06212177 -34.73168282 23.11692993 -45 33 C-45.71800781 33.64324219 -46.43601562 34.28648438 -47.17578125 34.94921875 C-66.24962129 52.57054191 -76.14523256 79.76540089 -78 105 C-81.32015744 101.89817491 -83.87766203 98.4766454 -86.4375 94.75 C-90.30068881 89.22254386 -94.39774346 83.95228679 -98.6875 78.75 C-115.24223505 58.60247381 -115.24223505 58.60247381 -114 45 C-112.33818306 34.7220235 -104.44717961 25.15571214 -96.54296875 18.71875 C-82.151376 8.99171343 -66.81096322 2.9873169 -49.33984375 2.75390625 C-47.64127144 2.72093944 -45.94270385 2.68772832 -44.24414062 2.65429688 C-41.60070332 2.60721027 -38.95728107 2.56279634 -36.3137207 2.52319336 C-26.98902397 2.37701629 -17.92507889 2.15263084 -8.72875977 0.41772461 C-5.78223348 -0.03333618 -2.97628544 -0.06777381 0 0 Z " fill="#D1172B" transform="translate(450,41)"/>
<path d="M0 0 C0.99 0.33 1.98 0.66 3 1 C3.92645565 3.30844432 4.64640334 5.48991692 5.3125 7.875 C5.74694061 9.33867686 6.18185656 10.8022127 6.6171875 12.265625 C6.84245117 13.03841797 7.06771484 13.81121094 7.29980469 14.60742188 C16.35921615 45.56356982 31.26144938 69.35430298 51.19921875 94.46484375 C61.01849241 106.83385431 70.28652948 119.52112842 79.26904297 132.50878906 C80.90744245 134.86679024 82.5610997 137.21296458 84.22265625 139.5546875 C105.89671585 170.14549695 127.3619705 201.34830623 144 235 C144.37656738 235.75732422 144.75313477 236.51464844 145.14111328 237.29492188 C154.67776294 256.60763498 154.67776294 256.60763498 154 267 C152.68 267 151.36 267 150 267 C149.57871826 266.10414185 149.57871826 266.10414185 149.14892578 265.19018555 C131.65961839 228.08660217 111.45271037 193.25903014 86 161 C85.19820312 159.98292969 84.39640625 158.96585938 83.5703125 157.91796875 C62.75283948 131.37129733 62.75283948 131.37129733 33.75390625 116.62109375 C24.36098594 116.11644812 16.9105773 121.14599857 10 127 C9.15695312 127.69996094 9.15695312 127.69996094 8.296875 128.4140625 C1.67687619 134.44630441 -4.00466617 143.00933234 -8 151 C-10.27029534 150.60856977 -11.83408198 150.11258722 -13.75 148.8125 C-15.65062742 146.05659024 -15.45061859 144.2830783 -15 141 C-12.49354192 136.84515057 -9.62804482 133.34160648 -6.3125 129.8125 C-1.30467157 124.38427949 3.39510903 118.7715812 8 113 C8.86818359 111.96939453 8.86818359 111.96939453 9.75390625 110.91796875 C16.99216032 102.01074382 20.11996892 90.39168383 19 79 C17.39522451 70.41541788 14.83334099 62.32173354 11.6875 54.1875 C5.87317646 39.14192702 -0.26095916 21.39865131 -0.0625 5.125 C-0.05347656 4.15820312 -0.04445313 3.19140625 -0.03515625 2.1953125 C-0.02355469 1.47085938 -0.01195312 0.74640625 0 0 Z " fill="#D1172B" transform="translate(594,44)"/>
<path d="M0 0 C6.99224962 5.07901596 12.37395438 11.5651639 17.25 18.625 C17.73210938 19.30369141 18.21421875 19.98238281 18.7109375 20.68164062 C25.66781244 30.62923562 31.28908936 41.17793116 36.33227539 52.19580078 C37.20420279 54.0989572 38.08683583 55.99689458 38.97070312 57.89453125 C43.25 67.15637914 43.25 67.15637914 43.25 69.4375 C23.78 69.4375 4.31 69.4375 -15.75 69.4375 C-18.85030139 61.68674654 -21.82854038 53.92113011 -24.6965332 46.08544922 C-25.44417327 44.044281 -26.19560781 42.00453537 -26.94726562 39.96484375 C-27.4273113 38.65633361 -27.90713711 37.34774278 -28.38671875 36.0390625 C-28.81686279 34.86682129 -29.24700684 33.69458008 -29.69018555 32.48681641 C-32.72697167 23.74932304 -32.45922858 16.61844791 -29.015625 7.9609375 C-26.66672255 3.277632 -23.78265826 0.47746469 -19.0625 -1.9375 C-12.1488615 -3.24196009 -6.14168155 -3.93697535 0 0 Z " fill="#D1172B" transform="translate(678.75,256.5625)"/>
<path d="M0 0 C7.89128351 4.62102188 13.94098228 10.6190285 16.7734375 19.54296875 C17.90228489 25.8268859 17.57203956 31.10030224 14.38671875 36.7109375 C10.74132736 41.87994449 6.35899719 44.31769019 0.125 45.5 C-19.10493913 46.220608 -43.40657874 39.55399311 -57.875 26.5 C-62.46842827 21.90657173 -64.98837365 18.48847293 -65.1875 11.8125 C-65.10955231 5.12848521 -62.79070114 0.84141251 -58.625 -4.25 C-42.06542266 -17.79874509 -16.92551432 -8.97052259 0 0 Z " fill="#D1172B" transform="translate(276.875,610.5)"/>
<path d="M0 0 C0.495 0.99 0.495 0.99 1 2 C0.505 3.155 0.01 4.31 -0.5 5.5 C-3.68082704 13.58075062 -0.72197162 22.00331219 2.125 29.8125 C2.43630859 30.67617188 2.74761719 31.53984375 3.06835938 32.4296875 C7.57179091 45.89497569 7.57179091 45.89497569 16.9375 55.8125 C17.948125 56.204375 18.95875 56.59625 20 57 C20 57.66 20 58.32 20 59 C18.23779297 60.38183594 18.23779297 60.38183594 15.7421875 61.984375 C14.35410889 62.882771 14.35410889 62.882771 12.93798828 63.79931641 C11.92720215 64.44304199 10.91641602 65.08676758 9.875 65.75 C8.84487793 66.41306152 7.81475586 67.07612305 6.75341797 67.75927734 C3.50653658 69.84624039 0.25330544 71.92306954 -3 74 C-5.03679685 75.3093694 -7.0732662 76.61924841 -9.109375 77.9296875 C-11.03083516 79.16210534 -12.95269431 80.39390141 -14.875 81.625 C-15.75816895 82.19186523 -16.64133789 82.75873047 -17.55126953 83.34277344 C-20.02202844 84.91597216 -22.50455836 86.46629043 -25 88 C-26.17997559 88.72848145 -26.17997559 88.72848145 -27.38378906 89.47167969 C-32.00921211 92.20159772 -35.62317134 93.65679817 -41 94 C-42.31495542 91.39704724 -43.62704986 88.79271967 -44.9375 86.1875 C-45.31068359 85.44951172 -45.68386719 84.71152344 -46.06835938 83.95117188 C-46.60493164 82.88286133 -46.60493164 82.88286133 -47.15234375 81.79296875 C-47.48226318 81.1383667 -47.81218262 80.48376465 -48.15209961 79.80932617 C-50.32458519 75.1734809 -50.76226932 71.02257151 -50 66 C-48.88208008 63.86279297 -48.88208008 63.86279297 -47.39453125 61.7421875 C-46.84869385 60.96182129 -46.30285645 60.18145508 -45.74047852 59.37744141 C-42.98213669 55.60962927 -40.14398717 51.91440151 -37.25 48.25 C-36.00235658 46.65774605 -34.75496172 45.06529731 -33.5078125 43.47265625 C-32.90485352 42.70453613 -32.30189453 41.93641602 -31.68066406 41.14501953 C-24.19517162 31.59133903 -16.87399954 21.90867271 -9.53173828 12.24487305 C-6.39895241 8.1260388 -3.26364355 4.01679206 0 0 Z " fill="#D1172B" transform="translate(155,437)"/>
<path d="M0 0 C7.62976544 5.3942009 13.22819709 11.86597972 15.37109375 21.1015625 C17.17844563 31.69201034 15.20416371 41.12208534 9.12890625 50.0234375 C2.77674986 57.75374253 -5.35381094 61.45504387 -15.18359375 62.7109375 C-25.79554934 63.01198589 -34.71437662 60.83956185 -42.99609375 54.0859375 C-49.00815392 48.40374258 -52.7306649 41.12380846 -53.421875 32.86328125 C-53.66765558 22.2171015 -51.90132699 14.50474931 -44.93359375 6.2734375 C-41.04682625 2.25286325 -37.43837797 -0.41001284 -32.18359375 -2.2890625 C-31.13171875 -2.7015625 -30.07984375 -3.1140625 -28.99609375 -3.5390625 C-19.14661535 -5.47666481 -8.80646043 -5.19880491 0 0 Z M-31.49609375 19.2734375 C-34.63036235 23.80071437 -34.96034292 28.3686293 -34.18359375 33.7109375 C-32.30401968 38.06403105 -29.56313945 42.64281869 -25.18359375 44.7109375 C-19.10388032 46.21605174 -14.71416847 45.96421675 -9.18359375 42.7109375 C-5.25643814 38.67764255 -3.43944606 34.9709662 -2.80859375 29.3984375 C-3.40786724 23.50558149 -5.46601773 19.30582952 -9.80859375 15.2734375 C-17.84634346 9.98544427 -25.26807462 12.37211901 -31.49609375 19.2734375 Z " fill="#FFFFFF" transform="translate(117.18359375,345.2890625)"/>
<path d="M0 0 C6.86223121 5.8236943 10.47474877 13.25013561 11.8515625 22.04296875 C12.66500637 32.09851957 9.75585713 40.92075829 3.4375 48.703125 C-2.98999196 55.61488005 -10.61592661 58.84487366 -19.9609375 59.73046875 C-31.12006551 60.109458 -40.68722294 57.03065928 -48.9609375 49.35546875 C-56.82209043 40.72737407 -57.63323585 30.92765504 -57.14453125 19.74609375 C-56.75872125 15.51039247 -55.22205996 12.26440849 -52.9609375 8.73046875 C-52.63351563 8.12203125 -52.30609375 7.51359375 -51.96875 6.88671875 C-47.96739691 0.22753258 -40.39122537 -4.51827418 -33.0234375 -6.70703125 C-21.06820281 -8.90738119 -9.92073717 -7.09876069 0 0 Z M-36.3984375 16.79296875 C-38.7624034 21.54136778 -38.7331583 26.56672965 -37.9609375 31.73046875 C-35.80553369 36.12110614 -33.16257147 39.20948837 -28.9609375 41.73046875 C-24.19397898 43.14594494 -20.22072063 43.20672932 -15.6484375 41.16796875 C-11.25564984 38.59530028 -8.7172272 35.6085712 -7.3984375 30.58984375 C-6.51618674 25.18605784 -7.17055273 21.56713569 -9.9609375 16.73046875 C-14.01247694 12.05561555 -16.62521541 9.96021191 -22.7734375 9.35546875 C-28.96025421 9.55132701 -32.60641713 12.02863547 -36.3984375 16.79296875 Z " fill="#FFFFFF" transform="translate(247.9609375,348.26953125)"/>
<path d="M0 0 C5.589375 -0.04125 11.17875 -0.0825 16.9375 -0.125 C19.55546509 -0.15231201 19.55546509 -0.15231201 22.22631836 -0.18017578 C42.29549988 -0.30368192 42.29549988 -0.30368192 50 6 C55.57310383 11.75434298 56.34002776 16.34224058 56.38720703 24.2277832 C56.26279408 30.01717902 55.08971804 33.88914647 51 38 C49.05049606 39.59338847 47.2122436 40.76525939 45 42 C45.42410156 42.66644531 45.84820312 43.33289063 46.28515625 44.01953125 C50.5234375 50.6796875 54.76171875 57.33984375 59 64 C51.78520416 65.12670998 44.07522493 66.22517938 37 64 C31.94744853 59.80222549 29.12926776 53.69645265 26.54711914 47.76586914 C24.610738 45.16891021 24.610738 45.16891021 18 45 C18 51.27 18 57.54 18 64 C12.06 64 6.12 64 0 64 C0 42.88 0 21.76 0 0 Z M18 16 C18 20.95 18 25.9 18 31 C28.02715103 31.63714022 28.02715103 31.63714022 37 28 C38.41349769 24.60581779 38.41349769 24.60581779 38 21 C35.70527041 17.77038058 33.81291924 16.68300988 30 16 C27.91765408 15.93256652 25.83331443 15.91485528 23.75 15.9375 C20.90375 15.9684375 20.90375 15.9684375 18 16 Z " fill="#FFFFFF" transform="translate(268,342)"/>
<path d="M0 0 C1.30071607 0.92490364 2.5959557 1.857851 3.875 2.8125 C1.81187686 6.47665876 -0.48372176 9.51798128 -3.3125 12.625 C-4.02792969 13.41519531 -4.74335938 14.20539063 -5.48046875 15.01953125 C-6.29451172 15.90705078 -6.29451172 15.90705078 -7.125 16.8125 C-7.73085938 16.4515625 -8.33671875 16.090625 -8.9609375 15.71875 C-15.08359537 12.32773949 -20.11165261 10.538449 -27.125 11.8125 C-32.02535276 13.99043456 -34.31146692 16.88705734 -36.43359375 21.6640625 C-37.96131714 26.41122557 -37.6627803 30.34068023 -35.9375 35.0625 C-32.93691173 39.61511668 -29.97991541 41.78218259 -24.75 43.1875 C-20.28293979 44.0554715 -17.33840392 43.42614405 -13.125 41.8125 C-12.795 39.5025 -12.465 37.1925 -12.125 34.8125 C-16.085 34.8125 -20.045 34.8125 -24.125 34.8125 C-24.125 30.5225 -24.125 26.2325 -24.125 21.8125 C-14.225 21.8125 -4.325 21.8125 5.875 21.8125 C6.060625 26.47375 6.24625 31.135 6.4375 35.9375 C6.51943604 37.39687988 6.60137207 38.85625977 6.68579102 40.35986328 C6.86561945 49.66066734 6.86561945 49.66066734 3.97875977 53.01733398 C1.65620147 54.59186488 -0.53216414 55.7496467 -3.125 56.8125 C-3.86717773 57.14314453 -4.60935547 57.47378906 -5.37402344 57.81445312 C-15.65741746 62.11431058 -27.85834395 61.81722399 -38.125 57.8125 C-46.85439056 53.36037631 -52.87568747 47.04738825 -56.125 37.8125 C-58.39384751 28.16190919 -57.91002676 18.60001564 -53.125 9.8125 C-48.51360316 3.38915942 -43.6234724 -1.50054739 -36.125 -4.1875 C-35.09375 -4.6 -34.0625 -5.0125 -33 -5.4375 C-21.13794271 -7.73338206 -10.1371916 -6.66879012 0 0 Z " fill="#FFFFFF" transform="translate(412.125,347.1875)"/>
<path d="M0 0 C6.27 0 12.54 0 19 0 C19 7.92 19 15.84 19 24 C25.93 24 32.86 24 40 24 C40 16.08 40 8.16 40 0 C46.27 0 52.54 0 59 0 C59 21.12 59 42.24 59 64 C52.73 64 46.46 64 40 64 C40 56.08 40 48.16 40 40 C33.07 40 26.14 40 19 40 C19 47.92 19 55.84 19 64 C12.73 64 6.46 64 0 64 C0 42.88 0 21.76 0 0 Z " fill="#FFFFFF" transform="translate(622,342)"/>
<path d="M0 0 C9.92015747 8.93812846 21.5676241 20.00947896 24.04296875 33.73828125 C24.23350034 38.34152457 23.60633889 41.56415225 20.578125 45.16015625 C19.2727803 46.25210065 17.95941806 47.33449263 16.640625 48.41015625 C9.26027655 54.69360887 7.89310249 62.90340678 6.578125 72.16015625 C4.1349177 69.90634138 2.49078857 67.58163008 0.79296875 64.73046875 C0.00490845 63.42348022 0.00490845 63.42348022 -0.79907227 62.09008789 C-1.35522217 61.16446045 -1.91137207 60.23883301 -2.484375 59.28515625 C-7.67379481 50.78990519 -13.05704561 42.83134722 -19.421875 35.16015625 C-19.90011719 34.58185059 -20.37835937 34.00354492 -20.87109375 33.40771484 C-26.44071577 26.70161789 -32.14395848 20.25765085 -38.40234375 14.1796875 C-40.39459563 12.18743562 -42.22351679 10.11944829 -44.046875 7.97265625 C-46.81549084 4.72423345 -49.78521424 2.0237267 -53.13671875 -0.61328125 C-53.56082031 -1.01804688 -53.98492188 -1.4228125 -54.421875 -1.83984375 C-54.421875 -2.49984375 -54.421875 -3.15984375 -54.421875 -3.83984375 C-13.97295353 -10.61493728 -13.97295353 -10.61493728 0 0 Z " fill="#D1172B" transform="translate(637.421875,204.83984375)"/>
<path d="M0 0 C28.71 0 57.42 0 87 0 C82.07438017 39.40495868 82.07438017 39.40495868 73.8125 48.375 C69.72682659 50.7356113 66.60547596 50.92252546 62 50 C53.54063195 46.68382761 46.79498405 40.87820049 40 35 C38.84982452 34.02241748 37.69874302 33.04590017 36.546875 32.0703125 C31.28945364 27.60489969 26.08220143 23.10244351 21 18.4375 C16.41817289 14.26040096 11.58005529 10.46300513 6.64453125 6.71655273 C3.89773452 4.6090035 1.93890848 2.90836272 0 0 Z " fill="#D1172B" transform="translate(725,426)"/>
<path d="M0 0 C1 3 1 3 0 5.75 C-1.64687006 11.1023277 -0.49957567 15.35969554 2.00390625 20.234375 C2.84317035 21.74720873 3.69662603 23.25223754 4.5625 24.75 C5.00924072 25.53697266 5.45598145 26.32394531 5.91625977 27.13476562 C12.05842893 38.29929461 12.05842893 38.29929461 21 47 C21 47.66 21 48.32 21 49 C20.33919434 49.13986328 19.67838867 49.27972656 18.99755859 49.42382812 C7.8771967 51.79464735 -3.21953415 54.1904539 -14.19140625 57.1796875 C-14.86210144 57.36215027 -15.53279663 57.54461304 -16.22381592 57.73260498 C-19.48652417 58.62459186 -22.7432332 59.53314994 -25.99658203 60.45898438 C-38.09004133 63.81655148 -38.09004133 63.81655148 -44 63 C-48.0466454 60.57771226 -50.20116591 57.55241867 -52.625 53.5625 C-53.19476563 52.63566406 -53.76453125 51.70882812 -54.3515625 50.75390625 C-54.89554687 49.84511719 -55.43953125 48.93632813 -56 48 C-56.55171875 47.11054687 -57.1034375 46.22109375 -57.671875 45.3046875 C-59.32625663 42.43384879 -59.79205195 41.24741298 -59 38 C-54.58473837 33.33390898 -49.05215781 29.91650568 -43.625 26.5625 C-42.82280029 26.06097412 -42.02060059 25.55944824 -41.1940918 25.04272461 C-32.06062443 19.36184788 -22.82066104 13.85515859 -13.58203125 8.34765625 C-9.01720483 5.62205225 -4.49598839 2.83758788 0 0 Z " fill="#D1172B" transform="translate(182,505)"/>
<path d="M0 0 C14.75522003 7.5168102 21.94137046 33.2903727 26.71289062 47.89282227 C30.14050905 58.97410852 33.67100247 70.84587923 28.3515625 81.8828125 C24.12904672 88.49727363 17.52979127 92.14633579 10 94 C3.94858171 94.3988877 -0.34920578 92.95812274 -5 89 C-18.92169398 75.72517261 -25.31197273 54.91701681 -26.18359375 36.01953125 C-26.42027791 25.8099995 -26.02754416 15.66349641 -20 7 C-13.80223654 0.52678039 -8.96058605 -2.32645031 0 0 Z M-10 21 C-13.57501861 31.72505582 -10.38476729 43.68173015 -7 54 C-6.69964844 54.93972656 -6.39929688 55.87945313 -6.08984375 56.84765625 C-3.50910129 64.07596954 0.55807481 70.16041172 6.5 75.0625 C9.95153541 76.35682578 12.34344595 76.52236486 16 76 C19.38323406 73.20515447 21.74099791 71.01956057 22.30859375 66.59375 C22.96596967 50.81672794 15.8040122 31.84700615 5.6875 19.6875 C2.82729997 16.82729997 2.08483417 16.14464456 -1.8125 15.625 C-6.0592261 16.12461484 -7.34898555 17.74303939 -10 21 Z " fill="#D1172B" transform="translate(666,465)"/>
<path d="M0 0 C1.0725 0.763125 2.145 1.52625 3.25 2.3125 C2.62606349 6.07369476 0.90226285 8.50210042 -1.3125 11.5625 C-1.95316406 12.45453125 -2.59382812 13.3465625 -3.25390625 14.265625 C-3.74761719 14.94109375 -4.24132812 15.6165625 -4.75 16.3125 C-7.07191163 15.39174194 -9.38799884 14.47289889 -11.671875 13.4609375 C-16.80172322 11.2906171 -21.21752068 10.96672004 -26.75 11.3125 C-27.08 12.6325 -27.41 13.9525 -27.75 15.3125 C-23.18829425 17.48474083 -18.70248064 18.89541059 -13.8125 20.1875 C-6.74006115 22.15875423 0.42916405 24.56984832 4.25 31.3125 C6.24374888 37.29374663 6.24908576 43.98684022 3.5625 49.75 C0.00666271 55.82094172 -5.10306157 58.43255057 -11.75 60.3125 C-14.84638158 60.7351946 -17.8779725 60.79002192 -21 60.75 C-22.24680542 60.73864014 -22.24680542 60.73864014 -23.51879883 60.72705078 C-34.25035278 60.44176449 -42.66260088 57.4484404 -50.75 50.3125 C-48.12288552 45.36734333 -44.48354706 41.43474511 -40.75 37.3125 C-39.93015625 37.73402344 -39.1103125 38.15554688 -38.265625 38.58984375 C-37.18796875 39.13769531 -36.1103125 39.68554688 -35 40.25 C-33.39898438 41.06791016 -33.39898438 41.06791016 -31.765625 41.90234375 C-26.53288991 44.34925744 -22.4673466 44.49693054 -16.75 44.3125 C-16.09 43.9825 -15.43 43.6525 -14.75 43.3125 C-14.75 41.9925 -14.75 40.6725 -14.75 39.3125 C-15.44037354 39.10157715 -16.13074707 38.8906543 -16.84204102 38.67333984 C-20.00470175 37.69592998 -23.1583463 36.69200755 -26.3125 35.6875 C-27.39853516 35.35621094 -28.48457031 35.02492188 -29.60351562 34.68359375 C-35.99738231 32.62356376 -41.2966065 30.50577692 -45.75 25.3125 C-48.63754997 19.53740005 -48.56747005 13.26839077 -46.6875 7.1875 C-44.41622244 1.83527649 -40.70952173 -1.35142971 -35.45703125 -3.72265625 C-23.83226205 -7.69614652 -10.4950391 -6.51543873 0 0 Z " fill="#FFFFFF" transform="translate(831.75,346.6875)"/>
<path d="M0 0 C41.18305439 0 41.18305439 0 49.40625 8.0546875 C53.69238441 13.28629273 54.53789539 18.90881965 54.2734375 25.55078125 C53.59148019 31.65917033 51.82745506 35.57252255 47.3125 39.8125 C37.91213644 47.21782238 29.5087762 46.26973694 18 46 C18 51.94 18 57.88 18 64 C12.06 64 6.12 64 0 64 C0 42.88 0 21.76 0 0 Z M18 16 C18 21.28 18 26.56 18 32 C26.43102559 32.41007442 26.43102559 32.41007442 34 29 C35.56430248 25.87139505 35.35627284 23.44397075 35 20 C33.35020768 17.29097508 33.35020768 17.29097508 30 16 C25.93660531 15.6776761 22.08954612 15.82023973 18 16 Z " fill="#FFFFFF" transform="translate(562,342)"/>
<path d="M0 0 C4.45722898 2.71541083 8.10323711 5.61499196 11 10 C11 10.66 11 11.32 11 12 C9.11864124 13.66541663 7.25205353 15.18130392 5.25 16.6875 C4.44175781 17.33041992 4.44175781 17.33041992 3.6171875 17.98632812 C-0.39969982 21.02838547 -0.39969982 21.02838547 -3.23046875 20.89453125 C-5.77065051 19.6104217 -7.80553181 17.80058928 -10 16 C-13.61930698 14.79356434 -16.19231005 14.67731441 -20 15 C-25.08643801 17.73885123 -28.17004027 20.5101208 -30 26 C-30.54219442 32.39789411 -29.5661656 36.62598657 -26 42 C-23.2589759 45.03470525 -20.21542105 45.75014211 -16.16015625 46.13671875 C-10.84725363 45.80045909 -6.54165312 42.79229319 -3 39 C0.83663072 40.34929464 3.65172569 42.07751025 6.8125 44.625 C7.99779297 45.57246094 7.99779297 45.57246094 9.20703125 46.5390625 C9.79871094 47.02117187 10.39039063 47.50328125 11 48 C10.30507794 52.93063746 7.09055691 55.0886466 3.44921875 58.1640625 C-4.20860458 63.90437664 -13.88442497 64.76352028 -23.22265625 63.59765625 C-30.01620308 62.14619049 -34.96335127 59.77691124 -40 55 C-40.55429687 54.48566406 -41.10859375 53.97132813 -41.6796875 53.44140625 C-47.81360533 47.07861089 -50.18970457 39.20895843 -50.5 30.5 C-50.11148375 19.93486454 -46.56674753 12.28970415 -39 5 C-37.88625 3.88625 -37.88625 3.88625 -36.75 2.75 C-25.68566634 -4.2909396 -12.0158614 -5.51581351 0 0 Z " fill="#FFFFFF" transform="translate(50,344)"/>
<path d="M0 0 C1.21128621 0.97105199 2.40098788 1.9699292 3.5625 3 C4.13097656 3.495 4.69945312 3.99 5.28515625 4.5 C6.5625 6 6.5625 6 6.5625 9 C4.6796207 10.7407752 2.86443896 12.23729151 0.8125 13.75 C0.27367187 14.17410156 -0.26515625 14.59820312 -0.8203125 15.03515625 C-4.82029581 18.0302657 -4.82029581 18.0302657 -7.66796875 17.890625 C-10.21041773 16.61098181 -12.24313041 14.80050838 -14.4375 13 C-18.05680698 11.79356434 -20.62981005 11.67731441 -24.4375 12 C-28.91208343 14.40939108 -32.29190671 16.97979951 -34.125 21.8125 C-35.10384095 28.66438664 -34.17059235 33.25777808 -30.4375 39 C-27.6964759 42.03470525 -24.65292105 42.75014211 -20.59765625 43.13671875 C-15.28475363 42.80045909 -10.97915312 39.79229319 -7.4375 36 C-3.60086928 37.34929464 -0.78577431 39.07751025 2.375 41.625 C3.56029297 42.57246094 3.56029297 42.57246094 4.76953125 43.5390625 C5.36121094 44.02117187 5.95289063 44.50328125 6.5625 45 C5.86757794 49.93063746 2.65305691 52.0886466 -0.98828125 55.1640625 C-8.64610458 60.90437664 -18.32192497 61.76352028 -27.66015625 60.59765625 C-34.45370308 59.14619049 -39.40085127 56.77691124 -44.4375 52 C-44.99179687 51.48566406 -45.54609375 50.97132813 -46.1171875 50.44140625 C-52.25110533 44.07861089 -54.62720457 36.20895843 -54.9375 27.5 C-54.59578535 18.20756602 -51.90953026 10.53619923 -45.421875 3.78515625 C-32.78920752 -7.57927099 -14.34286152 -10.50242319 0 0 Z " fill="#FFFFFF" transform="translate(772.4375,347)"/>
<path d="M0 0 C0.66 0 1.32 0 2 0 C2.3403125 1.14855469 2.680625 2.29710937 3.03125 3.48046875 C8.73737345 22.04492522 17.84377427 35.64230264 33.234375 47.765625 C36.00680345 50.00549657 38.58949301 52.37387994 41.1875 54.8125 C47.81579253 60.99503717 47.81579253 60.99503717 56.33203125 62.92578125 C60.95026723 62.13304468 65.15022801 60.58055235 69.5 58.875 C76.14196658 56.3666477 81.84987557 55.83942784 88.5625 58.3125 C91 60 91 60 92 63 C90.97519531 63.24234375 89.95039062 63.4846875 88.89453125 63.734375 C87.533686 64.07224003 86.17301803 64.41081969 84.8125 64.75 C84.13896484 64.90726563 83.46542969 65.06453125 82.77148438 65.2265625 C77.35742935 66.59988377 73.73987914 68.5006498 70.5234375 73.12109375 C63.67988968 86.92457625 62.93071722 100.90266203 64.50390625 115.9609375 C65.16405315 122.88469234 65.18606127 129.80375042 65.18530273 136.75195312 C65.18749637 138.99628486 65.20574399 141.24012916 65.22460938 143.484375 C65.30606461 163.6282815 65.30606461 163.6282815 60.5 172.625 C60.0771875 173.44226563 59.654375 174.25953125 59.21875 175.1015625 C58 177 58 177 56 178 C56.0721875 177.19820312 56.144375 176.39640625 56.21875 175.5703125 C58.78171635 144.17397475 60.54962749 94.96684955 40 69 C35.71597468 64.24797192 31.10688483 59.90857735 26.25 55.75 C10.20370966 41.83229919 0.78771617 29.69765673 -0.94921875 8.05078125 C-0.99701204 5.17950744 -0.68551058 2.77812182 0 0 Z " fill="#D1172B" transform="translate(626,518)"/>
<path d="M0 0 C6.60016375 5.25013026 13.95203447 12.64418263 15.0234375 21.4296875 C15.43370147 32.06499186 11.33023428 41.30046022 5.75 50.1875 C4.76 50.1875 3.77 50.1875 2.75 50.1875 C3.06146472 48.29149631 3.37421717 46.39570413 3.6875 44.5 C3.86152344 43.44425781 4.03554688 42.38851562 4.21484375 41.30078125 C4.54806387 39.3622671 4.90466247 37.42744444 5.296875 35.5 C6.43093726 29.7123719 5.96426791 25.30600864 3.1484375 20.18359375 C-0.19188776 15.41569931 -4.0888752 11.76637272 -9.75 10.25 C-10.575 10.229375 -11.4 10.20875 -12.25 10.1875 C-16.94595148 16.10993385 -21.42537512 22.13322089 -25.6875 28.375 C-26.24735596 29.19436035 -26.80721191 30.0137207 -27.3840332 30.85791016 C-38.60560061 45.86585251 -38.60560061 45.86585251 -42.25 63.1875 C-39.04228311 66.58390612 -35.80145685 68.26035138 -31.25 69.1875 C-21.44326935 69.46592453 -13.62460136 66.34398695 -6.3125 59.875 C-5.78785156 59.36324219 -5.26320312 58.85148437 -4.72265625 58.32421875 C-3.25 57.1875 -3.25 57.1875 -0.25 57.1875 C-1.25997814 64.5641758 -6.62704023 69.10470226 -12.3125 73.5 C-19.7235793 78.71467913 -26.23968267 81.10342997 -35.3515625 79.71484375 C-43.62480524 77.83642759 -49.75587621 74.79949418 -55.1015625 68.08203125 C-57.16906347 64.67135788 -57.11990825 61.91830368 -56.25 58.1875 C-52.52300087 45.94884071 -44.98314874 35.4803351 -38.02197266 24.89550781 C-36.3612828 22.35756735 -34.72756233 19.80491876 -33.10546875 17.2421875 C-32.62102295 16.48010986 -32.13657715 15.71803223 -31.63745117 14.93286133 C-30.74799778 13.53349431 -29.86119653 12.13243594 -28.9777832 10.72924805 C-21.65621253 -0.67749409 -21.65621253 -0.67749409 -15.9375 -3.375 C-9.9135613 -4.08970459 -5.27978031 -2.94449287 0 0 Z " fill="#D1172B" transform="translate(261.25,101.8125)"/>
<path d="M0 0 C5.94 0 11.88 0 18 0 C18 15.84 18 31.68 18 48 C28.23 48 38.46 48 49 48 C49 53.28 49 58.56 49 64 C32.83 64 16.66 64 0 64 C0 42.88 0 21.76 0 0 Z " fill="#FFFFFF" transform="translate(141,342)"/>
<path d="M0 0 C6.27 0 12.54 0 19 0 C19 21.12 19 42.24 19 64 C12.73 64 6.46 64 0 64 C0 42.88 0 21.76 0 0 Z " fill="#FFFFFF" transform="translate(691,342)"/>
<path d="M0 0 C2.23439048 2.85110036 4.05230576 5.75084455 5.78515625 8.9296875 C17.45325084 30.19788724 17.45325084 30.19788724 33.3828125 48.328125 C35 50 35 50 35 52 C34.41734375 52.1451001 33.8346875 52.2902002 33.234375 52.43969727 C18.69564711 56.10723996 5.50306516 60.67679921 -7.875 67.4375 C-11 69 -11 69 -13 69 C-11.70949346 65.53214592 -10.18242149 62.54831425 -8.1875 59.4375 C1.8699949 42.9127162 4.75446972 25.05080501 0.4375 6.1640625 C0 4 0 4 0 0 Z " fill="#D1172B" transform="translate(317,91)"/>
<path d="M0 0 C12.21 0 24.42 0 37 0 C35.68701253 3.28246867 34.66452763 5.7530463 32.86328125 8.64453125 C23.9290019 23.24234846 17.59003839 37.23162192 14 54 C11.27224943 50.80233064 10.17816991 47.89651176 9.0625 43.86328125 C8.72605469 42.65341553 8.38960937 41.4435498 8.04296875 40.19702148 C7.69448045 38.90240468 7.34683878 37.6075597 7 36.3125 C6.82291504 35.66193634 6.64583008 35.01137268 6.46337891 34.34109497 C0 10.56535607 0 10.56535607 0 0 Z " fill="#D1172B" transform="translate(26,426)"/>
</svg>
